<mxfile host="app.diagrams.net" agent="Mozilla/5.0 (Windows NT 10.0; Win64; x64; rv:139.0) Gecko/20100101 Firefox/139.0" version="27.1.5">
  <diagram name="Page-1" id="42789a77-a242-8287-6e28-9cd8cfd52e62">
    <mxGraphModel dx="1665" dy="751" grid="1" gridSize="10" guides="1" tooltips="1" connect="1" arrows="1" fold="1" page="1" pageScale="1" pageWidth="1100" pageHeight="850" background="none" math="0" shadow="0">
      <root>
        <mxCell id="0" />
        <mxCell id="1" parent="0" />
        <mxCell id="ZXX-v3CZGw-HriFd5jeJ-169" style="edgeStyle=orthogonalEdgeStyle;rounded=0;orthogonalLoop=1;jettySize=auto;html=1;exitX=0.5;exitY=1;exitDx=0;exitDy=0;" parent="1" source="1ea317790d2ca983-2" target="ZXX-v3CZGw-HriFd5jeJ-167" edge="1">
          <mxGeometry relative="1" as="geometry" />
        </mxCell>
        <mxCell id="ZXX-v3CZGw-HriFd5jeJ-170" style="edgeStyle=orthogonalEdgeStyle;rounded=0;orthogonalLoop=1;jettySize=auto;html=1;exitX=0.5;exitY=1;exitDx=0;exitDy=0;" parent="1" source="1ea317790d2ca983-2" target="ZXX-v3CZGw-HriFd5jeJ-166" edge="1">
          <mxGeometry relative="1" as="geometry" />
        </mxCell>
        <mxCell id="ZXX-v3CZGw-HriFd5jeJ-171" style="edgeStyle=orthogonalEdgeStyle;rounded=0;orthogonalLoop=1;jettySize=auto;html=1;exitX=0.5;exitY=1;exitDx=0;exitDy=0;" parent="1" source="1ea317790d2ca983-2" target="ZXX-v3CZGw-HriFd5jeJ-168" edge="1">
          <mxGeometry relative="1" as="geometry" />
        </mxCell>
        <mxCell id="1ea317790d2ca983-2" value=".bh paramfield_decl.bs" style="ellipse;whiteSpace=wrap;html=1;rounded=0;shadow=1;comic=0;labelBackgroundColor=none;strokeWidth=1;fontFamily=Verdana;fontSize=12;align=center;" parent="1" vertex="1">
          <mxGeometry x="440" y="2230" width="75" height="50" as="geometry" />
        </mxCell>
        <mxCell id="1ea317790d2ca983-3" value="type.t" style="ellipse;whiteSpace=wrap;html=1;rounded=0;shadow=1;comic=0;labelBackgroundColor=none;strokeWidth=1;fontFamily=Verdana;fontSize=12;align=center;" parent="1" vertex="1">
          <mxGeometry x="185" y="4960" width="75" height="50" as="geometry" />
        </mxCell>
        <mxCell id="ZXX-v3CZGw-HriFd5jeJ-63" style="edgeStyle=orthogonalEdgeStyle;rounded=0;orthogonalLoop=1;jettySize=auto;html=1;exitX=0.5;exitY=1;exitDx=0;exitDy=0;" parent="1" source="1ea317790d2ca983-4" target="ZXX-v3CZGw-HriFd5jeJ-56" edge="1">
          <mxGeometry relative="1" as="geometry" />
        </mxCell>
        <mxCell id="ZXX-v3CZGw-HriFd5jeJ-64" style="edgeStyle=orthogonalEdgeStyle;rounded=0;orthogonalLoop=1;jettySize=auto;html=1;exitX=0.5;exitY=1;exitDx=0;exitDy=0;" parent="1" source="1ea317790d2ca983-4" target="ZXX-v3CZGw-HriFd5jeJ-57" edge="1">
          <mxGeometry relative="1" as="geometry" />
        </mxCell>
        <mxCell id="ZXX-v3CZGw-HriFd5jeJ-65" style="edgeStyle=orthogonalEdgeStyle;rounded=0;orthogonalLoop=1;jettySize=auto;html=1;exitX=0.5;exitY=1;exitDx=0;exitDy=0;" parent="1" source="1ea317790d2ca983-4" target="ZXX-v3CZGw-HriFd5jeJ-58" edge="1">
          <mxGeometry relative="1" as="geometry" />
        </mxCell>
        <mxCell id="ZXX-v3CZGw-HriFd5jeJ-66" style="edgeStyle=orthogonalEdgeStyle;rounded=0;orthogonalLoop=1;jettySize=auto;html=1;exitX=0.5;exitY=1;exitDx=0;exitDy=0;" parent="1" source="1ea317790d2ca983-4" target="ZXX-v3CZGw-HriFd5jeJ-59" edge="1">
          <mxGeometry relative="1" as="geometry" />
        </mxCell>
        <mxCell id="ZXX-v3CZGw-HriFd5jeJ-67" style="edgeStyle=orthogonalEdgeStyle;rounded=0;orthogonalLoop=1;jettySize=auto;html=1;exitX=0.5;exitY=1;exitDx=0;exitDy=0;" parent="1" source="1ea317790d2ca983-4" target="ZXX-v3CZGw-HriFd5jeJ-60" edge="1">
          <mxGeometry relative="1" as="geometry" />
        </mxCell>
        <mxCell id="1ea317790d2ca983-4" value=".bh program.bs" style="ellipse;whiteSpace=wrap;html=1;rounded=0;shadow=1;comic=0;labelBackgroundColor=none;strokeWidth=1;fontFamily=Verdana;fontSize=12;align=center;" parent="1" vertex="1">
          <mxGeometry x="430" y="6.67" width="95" height="63.33" as="geometry" />
        </mxCell>
        <mxCell id="ZXX-v3CZGw-HriFd5jeJ-161" style="edgeStyle=orthogonalEdgeStyle;rounded=0;orthogonalLoop=1;jettySize=auto;html=1;exitX=0.5;exitY=1;exitDx=0;exitDy=0;" parent="1" source="1ea317790d2ca983-5" target="ZXX-v3CZGw-HriFd5jeJ-157" edge="1">
          <mxGeometry relative="1" as="geometry" />
        </mxCell>
        <mxCell id="ZXX-v3CZGw-HriFd5jeJ-162" style="edgeStyle=orthogonalEdgeStyle;rounded=0;orthogonalLoop=1;jettySize=auto;html=1;exitX=0.5;exitY=1;exitDx=0;exitDy=0;" parent="1" source="1ea317790d2ca983-5" target="ZXX-v3CZGw-HriFd5jeJ-159" edge="1">
          <mxGeometry relative="1" as="geometry" />
        </mxCell>
        <mxCell id="ZXX-v3CZGw-HriFd5jeJ-163" style="edgeStyle=orthogonalEdgeStyle;rounded=0;orthogonalLoop=1;jettySize=auto;html=1;exitX=0.5;exitY=1;exitDx=0;exitDy=0;" parent="1" source="1ea317790d2ca983-5" target="ZXX-v3CZGw-HriFd5jeJ-156" edge="1">
          <mxGeometry relative="1" as="geometry" />
        </mxCell>
        <mxCell id="ZXX-v3CZGw-HriFd5jeJ-164" style="edgeStyle=orthogonalEdgeStyle;rounded=0;orthogonalLoop=1;jettySize=auto;html=1;exitX=0.5;exitY=1;exitDx=0;exitDy=0;" parent="1" source="1ea317790d2ca983-5" target="ZXX-v3CZGw-HriFd5jeJ-155" edge="1">
          <mxGeometry relative="1" as="geometry" />
        </mxCell>
        <mxCell id="ZXX-v3CZGw-HriFd5jeJ-165" style="edgeStyle=orthogonalEdgeStyle;rounded=0;orthogonalLoop=1;jettySize=auto;html=1;exitX=0.5;exitY=1;exitDx=0;exitDy=0;" parent="1" source="1ea317790d2ca983-5" target="ZXX-v3CZGw-HriFd5jeJ-158" edge="1">
          <mxGeometry relative="1" as="geometry" />
        </mxCell>
        <mxCell id="1ea317790d2ca983-5" value=".bh rec_decl.bs" style="ellipse;whiteSpace=wrap;html=1;rounded=0;shadow=1;comic=0;labelBackgroundColor=none;strokeWidth=1;fontFamily=Verdana;fontSize=12;align=center;" parent="1" vertex="1">
          <mxGeometry x="665" y="1990" width="75" height="50" as="geometry" />
        </mxCell>
        <mxCell id="ZXX-v3CZGw-HriFd5jeJ-81" style="edgeStyle=orthogonalEdgeStyle;rounded=0;orthogonalLoop=1;jettySize=auto;html=1;exitX=0.5;exitY=1;exitDx=0;exitDy=0;" parent="1" source="1ea317790d2ca983-6" target="ZXX-v3CZGw-HriFd5jeJ-74" edge="1">
          <mxGeometry relative="1" as="geometry" />
        </mxCell>
        <mxCell id="1ea317790d2ca983-6" value=".bh decl_list.bs" style="ellipse;whiteSpace=wrap;html=1;rounded=0;shadow=1;comic=0;labelBackgroundColor=none;strokeWidth=1;fontFamily=Verdana;fontSize=12;align=center;" parent="1" vertex="1">
          <mxGeometry x="295" y="440" width="75" height="50" as="geometry" />
        </mxCell>
        <mxCell id="ZXX-v3CZGw-HriFd5jeJ-94" style="edgeStyle=orthogonalEdgeStyle;rounded=0;orthogonalLoop=1;jettySize=auto;html=1;exitX=0.5;exitY=1;exitDx=0;exitDy=0;" parent="1" source="1ea317790d2ca983-7" target="ZXX-v3CZGw-HriFd5jeJ-91" edge="1">
          <mxGeometry relative="1" as="geometry" />
        </mxCell>
        <mxCell id="ZXX-v3CZGw-HriFd5jeJ-95" style="edgeStyle=orthogonalEdgeStyle;rounded=0;orthogonalLoop=1;jettySize=auto;html=1;exitX=0.5;exitY=1;exitDx=0;exitDy=0;" parent="1" source="1ea317790d2ca983-7" target="ZXX-v3CZGw-HriFd5jeJ-92" edge="1">
          <mxGeometry relative="1" as="geometry" />
        </mxCell>
        <mxCell id="ZXX-v3CZGw-HriFd5jeJ-96" style="edgeStyle=orthogonalEdgeStyle;rounded=0;orthogonalLoop=1;jettySize=auto;html=1;exitX=0.5;exitY=1;exitDx=0;exitDy=0;" parent="1" source="1ea317790d2ca983-7" target="ZXX-v3CZGw-HriFd5jeJ-90" edge="1">
          <mxGeometry relative="1" as="geometry" />
        </mxCell>
        <mxCell id="ZXX-v3CZGw-HriFd5jeJ-97" style="edgeStyle=orthogonalEdgeStyle;rounded=0;orthogonalLoop=1;jettySize=auto;html=1;exitX=0.5;exitY=1;exitDx=0;exitDy=0;" parent="1" source="1ea317790d2ca983-7" target="ZXX-v3CZGw-HriFd5jeJ-93" edge="1">
          <mxGeometry relative="1" as="geometry" />
        </mxCell>
        <mxCell id="1ea317790d2ca983-7" value=".bh var_decl.bs" style="ellipse;whiteSpace=wrap;html=1;rounded=0;shadow=1;comic=0;labelBackgroundColor=none;strokeWidth=1;fontFamily=Verdana;fontSize=12;align=center;" parent="1" vertex="1">
          <mxGeometry x="292.5" y="890" width="75" height="50" as="geometry" />
        </mxCell>
        <mxCell id="1ea317790d2ca983-8" value="opt_paramfield_decl_list_semicolumn" style="ellipse;whiteSpace=wrap;html=1;rounded=0;shadow=1;comic=0;labelBackgroundColor=none;strokeWidth=1;fontFamily=Verdana;fontSize=12;align=center;" parent="1" vertex="1">
          <mxGeometry x="195" y="3620" width="75" height="50" as="geometry" />
        </mxCell>
        <mxCell id="1ea317790d2ca983-9" value="Îµ" style="ellipse;whiteSpace=wrap;html=1;rounded=0;shadow=1;comic=0;labelBackgroundColor=none;strokeWidth=1;fontFamily=Verdana;fontSize=12;align=center;" parent="1" vertex="1">
          <mxGeometry x="295" y="320" width="75" height="50" as="geometry" />
        </mxCell>
        <mxCell id="ZXX-v3CZGw-HriFd5jeJ-121" style="edgeStyle=orthogonalEdgeStyle;rounded=0;orthogonalLoop=1;jettySize=auto;html=1;exitX=0.5;exitY=1;exitDx=0;exitDy=0;" parent="1" source="1ea317790d2ca983-10" target="ZXX-v3CZGw-HriFd5jeJ-120" edge="1">
          <mxGeometry relative="1" as="geometry" />
        </mxCell>
        <mxCell id="1ea317790d2ca983-10" value=".bh opt_proc_return_type.bs" style="ellipse;whiteSpace=wrap;html=1;rounded=0;shadow=1;comic=0;labelBackgroundColor=none;strokeWidth=1;fontFamily=Verdana;fontSize=12;align=center;" parent="1" vertex="1">
          <mxGeometry x="292.5" y="1170" width="75" height="50" as="geometry" />
        </mxCell>
        <mxCell id="ZXX-v3CZGw-HriFd5jeJ-151" style="edgeStyle=orthogonalEdgeStyle;rounded=0;orthogonalLoop=1;jettySize=auto;html=1;exitX=0.5;exitY=1;exitDx=0;exitDy=0;" parent="1" source="1ea317790d2ca983-11" target="ZXX-v3CZGw-HriFd5jeJ-146" edge="1">
          <mxGeometry relative="1" as="geometry" />
        </mxCell>
        <mxCell id="1ea317790d2ca983-11" value=".bh proc_body.bs" style="ellipse;whiteSpace=wrap;html=1;rounded=0;shadow=1;comic=0;labelBackgroundColor=none;strokeWidth=1;fontFamily=Verdana;fontSize=12;align=center;" parent="1" vertex="1">
          <mxGeometry x="460" y="1720" width="75" height="50" as="geometry" />
        </mxCell>
        <mxCell id="ZXX-v3CZGw-HriFd5jeJ-8" value="opt_stmt_list" style="ellipse;whiteSpace=wrap;html=1;rounded=0;shadow=1;comic=0;labelBackgroundColor=none;strokeWidth=1;fontFamily=Verdana;fontSize=12;align=center;" parent="1" vertex="1">
          <mxGeometry x="195" y="3800" width="75" height="50" as="geometry" />
        </mxCell>
        <mxCell id="ZXX-v3CZGw-HriFd5jeJ-10" value="do_while_opt_stmt_list" style="ellipse;whiteSpace=wrap;html=1;rounded=0;shadow=1;comic=0;labelBackgroundColor=none;strokeWidth=1;fontFamily=Verdana;fontSize=12;align=center;" parent="1" vertex="1">
          <mxGeometry x="192.5" y="4900" width="75" height="50" as="geometry" />
        </mxCell>
        <mxCell id="ZXX-v3CZGw-HriFd5jeJ-137" style="edgeStyle=orthogonalEdgeStyle;rounded=0;orthogonalLoop=1;jettySize=auto;html=1;exitX=0.5;exitY=1;exitDx=0;exitDy=0;" parent="1" source="ZXX-v3CZGw-HriFd5jeJ-12" target="ZXX-v3CZGw-HriFd5jeJ-135" edge="1">
          <mxGeometry relative="1" as="geometry" />
        </mxCell>
        <mxCell id="ZXX-v3CZGw-HriFd5jeJ-138" style="edgeStyle=orthogonalEdgeStyle;rounded=0;orthogonalLoop=1;jettySize=auto;html=1;exitX=0.5;exitY=1;exitDx=0;exitDy=0;" parent="1" source="ZXX-v3CZGw-HriFd5jeJ-12" target="ZXX-v3CZGw-HriFd5jeJ-128" edge="1">
          <mxGeometry relative="1" as="geometry" />
        </mxCell>
        <mxCell id="ZXX-v3CZGw-HriFd5jeJ-139" style="edgeStyle=orthogonalEdgeStyle;rounded=0;orthogonalLoop=1;jettySize=auto;html=1;exitX=0.5;exitY=1;exitDx=0;exitDy=0;" parent="1" source="ZXX-v3CZGw-HriFd5jeJ-12" target="ZXX-v3CZGw-HriFd5jeJ-134" edge="1">
          <mxGeometry relative="1" as="geometry" />
        </mxCell>
        <mxCell id="ZXX-v3CZGw-HriFd5jeJ-140" style="edgeStyle=orthogonalEdgeStyle;rounded=0;orthogonalLoop=1;jettySize=auto;html=1;exitX=0.5;exitY=1;exitDx=0;exitDy=0;" parent="1" source="ZXX-v3CZGw-HriFd5jeJ-12" target="ZXX-v3CZGw-HriFd5jeJ-127" edge="1">
          <mxGeometry relative="1" as="geometry" />
        </mxCell>
        <mxCell id="ZXX-v3CZGw-HriFd5jeJ-141" style="edgeStyle=orthogonalEdgeStyle;rounded=0;orthogonalLoop=1;jettySize=auto;html=1;exitX=0.5;exitY=1;exitDx=0;exitDy=0;" parent="1" source="ZXX-v3CZGw-HriFd5jeJ-12" target="ZXX-v3CZGw-HriFd5jeJ-133" edge="1">
          <mxGeometry relative="1" as="geometry" />
        </mxCell>
        <mxCell id="ZXX-v3CZGw-HriFd5jeJ-142" style="edgeStyle=orthogonalEdgeStyle;rounded=0;orthogonalLoop=1;jettySize=auto;html=1;exitX=0.5;exitY=1;exitDx=0;exitDy=0;" parent="1" source="ZXX-v3CZGw-HriFd5jeJ-12" target="ZXX-v3CZGw-HriFd5jeJ-129" edge="1">
          <mxGeometry relative="1" as="geometry" />
        </mxCell>
        <mxCell id="ZXX-v3CZGw-HriFd5jeJ-143" style="edgeStyle=orthogonalEdgeStyle;rounded=0;orthogonalLoop=1;jettySize=auto;html=1;exitX=0.5;exitY=1;exitDx=0;exitDy=0;" parent="1" source="ZXX-v3CZGw-HriFd5jeJ-12" target="ZXX-v3CZGw-HriFd5jeJ-130" edge="1">
          <mxGeometry relative="1" as="geometry" />
        </mxCell>
        <mxCell id="ZXX-v3CZGw-HriFd5jeJ-144" style="edgeStyle=orthogonalEdgeStyle;rounded=0;orthogonalLoop=1;jettySize=auto;html=1;exitX=0.5;exitY=1;exitDx=0;exitDy=0;" parent="1" source="ZXX-v3CZGw-HriFd5jeJ-12" target="ZXX-v3CZGw-HriFd5jeJ-132" edge="1">
          <mxGeometry relative="1" as="geometry" />
        </mxCell>
        <mxCell id="ZXX-v3CZGw-HriFd5jeJ-145" style="edgeStyle=orthogonalEdgeStyle;rounded=0;orthogonalLoop=1;jettySize=auto;html=1;exitX=0.5;exitY=1;exitDx=0;exitDy=0;" parent="1" source="ZXX-v3CZGw-HriFd5jeJ-12" target="ZXX-v3CZGw-HriFd5jeJ-131" edge="1">
          <mxGeometry relative="1" as="geometry" />
        </mxCell>
        <mxCell id="ZXX-v3CZGw-HriFd5jeJ-12" value=".bh proc_decl.bs" style="ellipse;whiteSpace=wrap;html=1;rounded=0;shadow=1;comic=0;labelBackgroundColor=none;strokeWidth=1;fontFamily=Verdana;fontSize=12;align=center;" parent="1" vertex="1">
          <mxGeometry x="720" y="1420" width="75" height="50" as="geometry" />
        </mxCell>
        <mxCell id="ZXX-v3CZGw-HriFd5jeJ-173" style="edgeStyle=orthogonalEdgeStyle;rounded=0;orthogonalLoop=1;jettySize=auto;html=1;exitX=0.5;exitY=1;exitDx=0;exitDy=0;" parent="1" source="ZXX-v3CZGw-HriFd5jeJ-14" target="ZXX-v3CZGw-HriFd5jeJ-172" edge="1">
          <mxGeometry relative="1" as="geometry" />
        </mxCell>
        <mxCell id="ZXX-v3CZGw-HriFd5jeJ-14" value=".bh opt_paramfield_decl_list_comma.bs" style="ellipse;whiteSpace=wrap;html=1;rounded=0;shadow=1;comic=0;labelBackgroundColor=none;strokeWidth=1;fontFamily=Verdana;fontSize=12;align=center;" parent="1" vertex="1">
          <mxGeometry x="438" y="2490" width="75" height="50" as="geometry" />
        </mxCell>
        <mxCell id="ZXX-v3CZGw-HriFd5jeJ-16" value="var" style="ellipse;whiteSpace=wrap;html=1;rounded=0;shadow=1;comic=0;labelBackgroundColor=none;strokeWidth=1;fontFamily=Verdana;fontSize=12;align=center;" parent="1" vertex="1">
          <mxGeometry x="185" y="4080" width="75" height="50" as="geometry" />
        </mxCell>
        <mxCell id="Opo9EoXG69oaY7-Oztma-10" style="edgeStyle=orthogonalEdgeStyle;rounded=0;orthogonalLoop=1;jettySize=auto;html=1;exitX=0.5;exitY=1;exitDx=0;exitDy=0;" parent="1" source="ZXX-v3CZGw-HriFd5jeJ-18" target="Opo9EoXG69oaY7-Oztma-1" edge="1">
          <mxGeometry relative="1" as="geometry" />
        </mxCell>
        <mxCell id="Opo9EoXG69oaY7-Oztma-11" style="edgeStyle=orthogonalEdgeStyle;rounded=0;orthogonalLoop=1;jettySize=auto;html=1;exitX=0.5;exitY=1;exitDx=0;exitDy=0;" parent="1" source="ZXX-v3CZGw-HriFd5jeJ-18" target="Opo9EoXG69oaY7-Oztma-7" edge="1">
          <mxGeometry relative="1" as="geometry" />
        </mxCell>
        <mxCell id="Opo9EoXG69oaY7-Oztma-13" style="edgeStyle=orthogonalEdgeStyle;rounded=0;orthogonalLoop=1;jettySize=auto;html=1;exitX=0.5;exitY=1;exitDx=0;exitDy=0;" parent="1" source="ZXX-v3CZGw-HriFd5jeJ-18" target="Opo9EoXG69oaY7-Oztma-8" edge="1">
          <mxGeometry relative="1" as="geometry" />
        </mxCell>
        <mxCell id="ZXX-v3CZGw-HriFd5jeJ-18" value=".bh exp.bs" style="ellipse;whiteSpace=wrap;html=1;rounded=0;shadow=1;comic=0;labelBackgroundColor=none;strokeWidth=1;fontFamily=Verdana;fontSize=12;align=center;" parent="1" vertex="1">
          <mxGeometry x="442.5" y="2750" width="75" height="50" as="geometry" />
        </mxCell>
        <mxCell id="ZXX-v3CZGw-HriFd5jeJ-19" value="deref_var" style="ellipse;whiteSpace=wrap;html=1;rounded=0;shadow=1;comic=0;labelBackgroundColor=none;strokeWidth=1;fontFamily=Verdana;fontSize=12;align=center;" parent="1" vertex="1">
          <mxGeometry x="182.5" y="4010" width="75" height="50" as="geometry" />
        </mxCell>
        <mxCell id="ZXX-v3CZGw-HriFd5jeJ-21" value="paramfield_decl_list_semicolumn" style="ellipse;whiteSpace=wrap;html=1;rounded=0;shadow=1;comic=0;labelBackgroundColor=none;strokeWidth=1;fontFamily=Verdana;fontSize=12;align=center;" parent="1" vertex="1">
          <mxGeometry x="185" y="3730" width="75" height="50" as="geometry" />
        </mxCell>
        <mxCell id="ZXX-v3CZGw-HriFd5jeJ-23" value="stmt_list" style="ellipse;whiteSpace=wrap;html=1;rounded=0;shadow=1;comic=0;labelBackgroundColor=none;strokeWidth=1;fontFamily=Verdana;fontSize=12;align=center;" parent="1" vertex="1">
          <mxGeometry x="185" y="3860" width="75" height="50" as="geometry" />
        </mxCell>
        <mxCell id="ZXX-v3CZGw-HriFd5jeJ-25" value="ref_var" style="ellipse;whiteSpace=wrap;html=1;rounded=0;shadow=1;comic=0;labelBackgroundColor=none;strokeWidth=1;fontFamily=Verdana;fontSize=12;align=center;" parent="1" vertex="1">
          <mxGeometry x="182.5" y="3930" width="75" height="50" as="geometry" />
        </mxCell>
        <mxCell id="ZXX-v3CZGw-HriFd5jeJ-32" value="opt_exp_list" style="ellipse;whiteSpace=wrap;html=1;rounded=0;shadow=1;comic=0;labelBackgroundColor=none;strokeWidth=1;fontFamily=Verdana;fontSize=12;align=center;" parent="1" vertex="1">
          <mxGeometry x="192.5" y="4640" width="75" height="50" as="geometry" />
        </mxCell>
        <mxCell id="ZXX-v3CZGw-HriFd5jeJ-34" value="do_while_stmt" style="ellipse;whiteSpace=wrap;html=1;rounded=0;shadow=1;comic=0;labelBackgroundColor=none;strokeWidth=1;fontFamily=Verdana;fontSize=12;align=center;" parent="1" vertex="1">
          <mxGeometry x="192.5" y="4840" width="75" height="50" as="geometry" />
        </mxCell>
        <mxCell id="ZXX-v3CZGw-HriFd5jeJ-36" value="literal.t" style="ellipse;whiteSpace=wrap;html=1;rounded=0;shadow=1;comic=0;labelBackgroundColor=none;strokeWidth=1;fontFamily=Verdana;fontSize=12;align=center;" parent="1" vertex="1">
          <mxGeometry x="192.5" y="4140" width="75" height="50" as="geometry" />
        </mxCell>
        <mxCell id="ZXX-v3CZGw-HriFd5jeJ-38" value="exp_list" style="ellipse;whiteSpace=wrap;html=1;rounded=0;shadow=1;comic=0;labelBackgroundColor=none;strokeWidth=1;fontFamily=Verdana;fontSize=12;align=center;" parent="1" vertex="1">
          <mxGeometry x="192.5" y="4710" width="75" height="50" as="geometry" />
        </mxCell>
        <mxCell id="ZXX-v3CZGw-HriFd5jeJ-40" value="stmt" style="ellipse;whiteSpace=wrap;html=1;rounded=0;shadow=1;comic=0;labelBackgroundColor=none;strokeWidth=1;fontFamily=Verdana;fontSize=12;align=center;" parent="1" vertex="1">
          <mxGeometry x="185" y="4250" width="75" height="50" as="geometry" />
        </mxCell>
        <mxCell id="ZXX-v3CZGw-HriFd5jeJ-42" value="opt_else_stmt" style="ellipse;whiteSpace=wrap;html=1;rounded=0;shadow=1;comic=0;labelBackgroundColor=none;strokeWidth=1;fontFamily=Verdana;fontSize=12;align=center;" parent="1" vertex="1">
          <mxGeometry x="185" y="4390" width="75" height="50" as="geometry" />
        </mxCell>
        <mxCell id="ZXX-v3CZGw-HriFd5jeJ-43" value="while_stmt" style="ellipse;whiteSpace=wrap;html=1;rounded=0;shadow=1;comic=0;labelBackgroundColor=none;strokeWidth=1;fontFamily=Verdana;fontSize=12;align=center;" parent="1" vertex="1">
          <mxGeometry x="192.5" y="4510" width="75" height="50" as="geometry" />
        </mxCell>
        <mxCell id="ZXX-v3CZGw-HriFd5jeJ-45" value="bool_literal.t" style="ellipse;whiteSpace=wrap;html=1;rounded=0;shadow=1;comic=0;labelBackgroundColor=none;strokeWidth=1;fontFamily=Verdana;fontSize=12;align=center;" parent="1" vertex="1">
          <mxGeometry x="185" y="4180" width="75" height="50" as="geometry" />
        </mxCell>
        <mxCell id="ZXX-v3CZGw-HriFd5jeJ-47" value="assign_stmt" style="ellipse;whiteSpace=wrap;html=1;rounded=0;shadow=1;comic=0;labelBackgroundColor=none;strokeWidth=1;fontFamily=Verdana;fontSize=12;align=center;" parent="1" vertex="1">
          <mxGeometry x="185" y="4310" width="75" height="50" as="geometry" />
        </mxCell>
        <mxCell id="ZXX-v3CZGw-HriFd5jeJ-49" value="if_stmt" style="ellipse;whiteSpace=wrap;html=1;rounded=0;shadow=1;comic=0;labelBackgroundColor=none;strokeWidth=1;fontFamily=Verdana;fontSize=12;align=center;" parent="1" vertex="1">
          <mxGeometry x="185" y="4460" width="75" height="50" as="geometry" />
        </mxCell>
        <mxCell id="ZXX-v3CZGw-HriFd5jeJ-50" value="return_stmt" style="ellipse;whiteSpace=wrap;html=1;rounded=0;shadow=1;comic=0;labelBackgroundColor=none;strokeWidth=1;fontFamily=Verdana;fontSize=12;align=center;" parent="1" vertex="1">
          <mxGeometry x="192.5" y="4580" width="75" height="50" as="geometry" />
        </mxCell>
        <mxCell id="ZXX-v3CZGw-HriFd5jeJ-87" style="edgeStyle=orthogonalEdgeStyle;rounded=0;orthogonalLoop=1;jettySize=auto;html=1;exitX=0.5;exitY=1;exitDx=0;exitDy=0;" parent="1" source="ZXX-v3CZGw-HriFd5jeJ-51" target="ZXX-v3CZGw-HriFd5jeJ-84" edge="1">
          <mxGeometry relative="1" as="geometry" />
        </mxCell>
        <mxCell id="ZXX-v3CZGw-HriFd5jeJ-51" value=".bh decl.bs" style="ellipse;whiteSpace=wrap;html=1;rounded=0;shadow=1;comic=0;labelBackgroundColor=none;strokeWidth=1;fontFamily=Verdana;fontSize=12;align=center;" parent="1" vertex="1">
          <mxGeometry x="295" y="660" width="75" height="50" as="geometry" />
        </mxCell>
        <mxCell id="ZXX-v3CZGw-HriFd5jeJ-52" value="paramfield_decl_list_comma" style="ellipse;whiteSpace=wrap;html=1;rounded=0;shadow=1;comic=0;labelBackgroundColor=none;strokeWidth=1;fontFamily=Verdana;fontSize=12;align=center;" parent="1" vertex="1">
          <mxGeometry x="195" y="3680" width="75" height="50" as="geometry" />
        </mxCell>
        <mxCell id="ZXX-v3CZGw-HriFd5jeJ-54" value="call_stmt" style="ellipse;whiteSpace=wrap;html=1;rounded=0;shadow=1;comic=0;labelBackgroundColor=none;strokeWidth=1;fontFamily=Verdana;fontSize=12;align=center;" parent="1" vertex="1">
          <mxGeometry x="202.5" y="4780" width="75" height="50" as="geometry" />
        </mxCell>
        <mxCell id="ZXX-v3CZGw-HriFd5jeJ-56" value="KW_PROGRAM" style="ellipse;whiteSpace=wrap;html=1;rounded=0;shadow=1;comic=0;labelBackgroundColor=none;strokeWidth=1;fontFamily=Verdana;fontSize=12;align=center;" parent="1" vertex="1">
          <mxGeometry x="220" y="120" width="75" height="50" as="geometry" />
        </mxCell>
        <mxCell id="ZXX-v3CZGw-HriFd5jeJ-57" value="ID.l" style="ellipse;whiteSpace=wrap;html=1;rounded=0;shadow=1;comic=0;labelBackgroundColor=none;strokeWidth=1;fontFamily=Verdana;fontSize=12;align=center;" parent="1" vertex="1">
          <mxGeometry x="330" y="120" width="75" height="50" as="geometry" />
        </mxCell>
        <mxCell id="ZXX-v3CZGw-HriFd5jeJ-58" value="KW_BEGIN" style="ellipse;whiteSpace=wrap;html=1;rounded=0;shadow=1;comic=0;labelBackgroundColor=none;strokeWidth=1;fontFamily=Verdana;fontSize=12;align=center;" parent="1" vertex="1">
          <mxGeometry x="440" y="120" width="75" height="50" as="geometry" />
        </mxCell>
        <mxCell id="ZXX-v3CZGw-HriFd5jeJ-59" value=".bh opt_decl_list.bs" style="ellipse;whiteSpace=wrap;html=1;rounded=0;shadow=1;comic=0;labelBackgroundColor=none;strokeWidth=1;fontFamily=Verdana;fontSize=12;align=center;" parent="1" vertex="1">
          <mxGeometry x="560" y="120" width="75" height="50" as="geometry" />
        </mxCell>
        <mxCell id="ZXX-v3CZGw-HriFd5jeJ-60" value="KW_END" style="ellipse;whiteSpace=wrap;html=1;rounded=0;shadow=1;comic=0;labelBackgroundColor=none;strokeWidth=1;fontFamily=Verdana;fontSize=12;align=center;" parent="1" vertex="1">
          <mxGeometry x="680" y="120" width="75" height="50" as="geometry" />
        </mxCell>
        <mxCell id="ZXX-v3CZGw-HriFd5jeJ-72" style="edgeStyle=orthogonalEdgeStyle;rounded=0;orthogonalLoop=1;jettySize=auto;html=1;exitX=0.5;exitY=1;exitDx=0;exitDy=0;" parent="1" source="ZXX-v3CZGw-HriFd5jeJ-68" target="ZXX-v3CZGw-HriFd5jeJ-69" edge="1">
          <mxGeometry relative="1" as="geometry" />
        </mxCell>
        <mxCell id="ZXX-v3CZGw-HriFd5jeJ-68" value=".bh opt_decl_list.bs" style="ellipse;whiteSpace=wrap;html=1;rounded=0;shadow=1;comic=0;labelBackgroundColor=none;strokeWidth=1;fontFamily=Verdana;fontSize=12;align=center;" parent="1" vertex="1">
          <mxGeometry x="513" y="240" width="75" height="50" as="geometry" />
        </mxCell>
        <mxCell id="ZXX-v3CZGw-HriFd5jeJ-69" value=".bh decl_list.bs" style="ellipse;whiteSpace=wrap;html=1;rounded=0;shadow=1;comic=0;labelBackgroundColor=none;strokeWidth=1;fontFamily=Verdana;fontSize=12;align=center;" parent="1" vertex="1">
          <mxGeometry x="513" y="320" width="75" height="50" as="geometry" />
        </mxCell>
        <mxCell id="ZXX-v3CZGw-HriFd5jeJ-71" style="edgeStyle=orthogonalEdgeStyle;rounded=0;orthogonalLoop=1;jettySize=auto;html=1;exitX=0.5;exitY=1;exitDx=0;exitDy=0;" parent="1" source="ZXX-v3CZGw-HriFd5jeJ-70" target="1ea317790d2ca983-9" edge="1">
          <mxGeometry relative="1" as="geometry" />
        </mxCell>
        <mxCell id="ZXX-v3CZGw-HriFd5jeJ-70" value=".bh opt_decl_list.bs" style="ellipse;whiteSpace=wrap;html=1;rounded=0;shadow=1;comic=0;labelBackgroundColor=none;strokeWidth=1;fontFamily=Verdana;fontSize=12;align=center;" parent="1" vertex="1">
          <mxGeometry x="295" y="240" width="75" height="50" as="geometry" />
        </mxCell>
        <mxCell id="ZXX-v3CZGw-HriFd5jeJ-78" style="edgeStyle=orthogonalEdgeStyle;rounded=0;orthogonalLoop=1;jettySize=auto;html=1;exitX=0.5;exitY=1;exitDx=0;exitDy=0;" parent="1" source="ZXX-v3CZGw-HriFd5jeJ-73" target="ZXX-v3CZGw-HriFd5jeJ-76" edge="1">
          <mxGeometry relative="1" as="geometry" />
        </mxCell>
        <mxCell id="ZXX-v3CZGw-HriFd5jeJ-79" style="edgeStyle=orthogonalEdgeStyle;rounded=0;orthogonalLoop=1;jettySize=auto;html=1;exitX=0.5;exitY=1;exitDx=0;exitDy=0;" parent="1" source="ZXX-v3CZGw-HriFd5jeJ-73" target="ZXX-v3CZGw-HriFd5jeJ-75" edge="1">
          <mxGeometry relative="1" as="geometry" />
        </mxCell>
        <mxCell id="ZXX-v3CZGw-HriFd5jeJ-80" style="edgeStyle=orthogonalEdgeStyle;rounded=0;orthogonalLoop=1;jettySize=auto;html=1;exitX=0.5;exitY=1;exitDx=0;exitDy=0;" parent="1" source="ZXX-v3CZGw-HriFd5jeJ-73" target="ZXX-v3CZGw-HriFd5jeJ-77" edge="1">
          <mxGeometry relative="1" as="geometry" />
        </mxCell>
        <mxCell id="ZXX-v3CZGw-HriFd5jeJ-73" value=".bh decl_list.bs" style="ellipse;whiteSpace=wrap;html=1;rounded=0;shadow=1;comic=0;labelBackgroundColor=none;strokeWidth=1;fontFamily=Verdana;fontSize=12;align=center;" parent="1" vertex="1">
          <mxGeometry x="610" y="440" width="75" height="50" as="geometry" />
        </mxCell>
        <mxCell id="ZXX-v3CZGw-HriFd5jeJ-74" value=".bh decl.bs" style="ellipse;whiteSpace=wrap;html=1;rounded=0;shadow=1;comic=0;labelBackgroundColor=none;strokeWidth=1;fontFamily=Verdana;fontSize=12;align=center;" parent="1" vertex="1">
          <mxGeometry x="295" y="530" width="75" height="50" as="geometry" />
        </mxCell>
        <mxCell id="ZXX-v3CZGw-HriFd5jeJ-75" value=".bh decl_list.bs" style="ellipse;whiteSpace=wrap;html=1;rounded=0;shadow=1;comic=0;labelBackgroundColor=none;strokeWidth=1;fontFamily=Verdana;fontSize=12;align=center;" parent="1" vertex="1">
          <mxGeometry x="475" y="540" width="75" height="50" as="geometry" />
        </mxCell>
        <mxCell id="ZXX-v3CZGw-HriFd5jeJ-76" value=";" style="ellipse;whiteSpace=wrap;html=1;rounded=0;shadow=1;comic=0;labelBackgroundColor=none;strokeWidth=1;fontFamily=Verdana;fontSize=12;align=center;" parent="1" vertex="1">
          <mxGeometry x="610" y="540" width="75" height="50" as="geometry" />
        </mxCell>
        <mxCell id="ZXX-v3CZGw-HriFd5jeJ-77" value=".bh decl.bs" style="ellipse;whiteSpace=wrap;html=1;rounded=0;shadow=1;comic=0;labelBackgroundColor=none;strokeWidth=1;fontFamily=Verdana;fontSize=12;align=center;" parent="1" vertex="1">
          <mxGeometry x="730" y="540" width="75" height="50" as="geometry" />
        </mxCell>
        <mxCell id="ZXX-v3CZGw-HriFd5jeJ-88" style="edgeStyle=orthogonalEdgeStyle;rounded=0;orthogonalLoop=1;jettySize=auto;html=1;exitX=0.5;exitY=1;exitDx=0;exitDy=0;" parent="1" source="ZXX-v3CZGw-HriFd5jeJ-82" target="ZXX-v3CZGw-HriFd5jeJ-85" edge="1">
          <mxGeometry relative="1" as="geometry" />
        </mxCell>
        <mxCell id="ZXX-v3CZGw-HriFd5jeJ-82" value=".bh decl.bs" style="ellipse;whiteSpace=wrap;html=1;rounded=0;shadow=1;comic=0;labelBackgroundColor=none;strokeWidth=1;fontFamily=Verdana;fontSize=12;align=center;" parent="1" vertex="1">
          <mxGeometry x="560" y="660" width="75" height="50" as="geometry" />
        </mxCell>
        <mxCell id="ZXX-v3CZGw-HriFd5jeJ-89" style="edgeStyle=orthogonalEdgeStyle;rounded=0;orthogonalLoop=1;jettySize=auto;html=1;exitX=0.5;exitY=1;exitDx=0;exitDy=0;" parent="1" source="ZXX-v3CZGw-HriFd5jeJ-83" target="ZXX-v3CZGw-HriFd5jeJ-86" edge="1">
          <mxGeometry relative="1" as="geometry" />
        </mxCell>
        <mxCell id="ZXX-v3CZGw-HriFd5jeJ-83" value=".bh decl.bs" style="ellipse;whiteSpace=wrap;html=1;rounded=0;shadow=1;comic=0;labelBackgroundColor=none;strokeWidth=1;fontFamily=Verdana;fontSize=12;align=center;" parent="1" vertex="1">
          <mxGeometry x="830" y="660" width="75" height="50" as="geometry" />
        </mxCell>
        <mxCell id="ZXX-v3CZGw-HriFd5jeJ-84" value=".bh var_decl.bs" style="ellipse;whiteSpace=wrap;html=1;rounded=0;shadow=1;comic=0;labelBackgroundColor=none;strokeWidth=1;fontFamily=Verdana;fontSize=12;align=center;" parent="1" vertex="1">
          <mxGeometry x="295" y="740" width="75" height="50" as="geometry" />
        </mxCell>
        <mxCell id="ZXX-v3CZGw-HriFd5jeJ-85" value=".bh proc_decl.bs" style="ellipse;whiteSpace=wrap;html=1;rounded=0;shadow=1;comic=0;labelBackgroundColor=none;strokeWidth=1;fontFamily=Verdana;fontSize=12;align=center;" parent="1" vertex="1">
          <mxGeometry x="560" y="740" width="75" height="50" as="geometry" />
        </mxCell>
        <mxCell id="ZXX-v3CZGw-HriFd5jeJ-86" value=".bh rec_decl.bs" style="ellipse;whiteSpace=wrap;html=1;rounded=0;shadow=1;comic=0;labelBackgroundColor=none;strokeWidth=1;fontFamily=Verdana;fontSize=12;align=center;" parent="1" vertex="1">
          <mxGeometry x="830" y="740" width="75" height="50" as="geometry" />
        </mxCell>
        <mxCell id="ZXX-v3CZGw-HriFd5jeJ-90" value="KW_VAR" style="ellipse;whiteSpace=wrap;html=1;rounded=0;shadow=1;comic=0;labelBackgroundColor=none;strokeWidth=1;fontFamily=Verdana;fontSize=12;align=center;" parent="1" vertex="1">
          <mxGeometry x="52.5" y="980" width="75" height="50" as="geometry" />
        </mxCell>
        <mxCell id="ZXX-v3CZGw-HriFd5jeJ-91" value=":" style="ellipse;whiteSpace=wrap;html=1;rounded=0;shadow=1;comic=0;labelBackgroundColor=none;strokeWidth=1;fontFamily=Verdana;fontSize=12;align=center;" parent="1" vertex="1">
          <mxGeometry x="367.5" y="980" width="75" height="50" as="geometry" />
        </mxCell>
        <mxCell id="ZXX-v3CZGw-HriFd5jeJ-92" value="ID.l" style="ellipse;whiteSpace=wrap;html=1;rounded=0;shadow=1;comic=0;labelBackgroundColor=none;strokeWidth=1;fontFamily=Verdana;fontSize=12;align=center;" parent="1" vertex="1">
          <mxGeometry x="197.5" y="980" width="75" height="50" as="geometry" />
        </mxCell>
        <mxCell id="ZXX-v3CZGw-HriFd5jeJ-93" value="type.t" style="ellipse;whiteSpace=wrap;html=1;rounded=0;shadow=1;comic=0;labelBackgroundColor=none;strokeWidth=1;fontFamily=Verdana;fontSize=12;align=center;" parent="1" vertex="1">
          <mxGeometry x="537.5" y="980" width="75" height="50" as="geometry" />
        </mxCell>
        <mxCell id="ZXX-v3CZGw-HriFd5jeJ-98" style="edgeStyle=orthogonalEdgeStyle;rounded=0;orthogonalLoop=1;jettySize=auto;html=1;exitX=0.5;exitY=1;exitDx=0;exitDy=0;" parent="1" source="ZXX-v3CZGw-HriFd5jeJ-102" target="ZXX-v3CZGw-HriFd5jeJ-104" edge="1">
          <mxGeometry relative="1" as="geometry" />
        </mxCell>
        <mxCell id="ZXX-v3CZGw-HriFd5jeJ-99" style="edgeStyle=orthogonalEdgeStyle;rounded=0;orthogonalLoop=1;jettySize=auto;html=1;exitX=0.5;exitY=1;exitDx=0;exitDy=0;" parent="1" source="ZXX-v3CZGw-HriFd5jeJ-102" target="ZXX-v3CZGw-HriFd5jeJ-105" edge="1">
          <mxGeometry relative="1" as="geometry" />
        </mxCell>
        <mxCell id="ZXX-v3CZGw-HriFd5jeJ-100" style="edgeStyle=orthogonalEdgeStyle;rounded=0;orthogonalLoop=1;jettySize=auto;html=1;exitX=0.5;exitY=1;exitDx=0;exitDy=0;" parent="1" source="ZXX-v3CZGw-HriFd5jeJ-102" target="ZXX-v3CZGw-HriFd5jeJ-103" edge="1">
          <mxGeometry relative="1" as="geometry" />
        </mxCell>
        <mxCell id="ZXX-v3CZGw-HriFd5jeJ-101" style="edgeStyle=orthogonalEdgeStyle;rounded=0;orthogonalLoop=1;jettySize=auto;html=1;exitX=0.5;exitY=1;exitDx=0;exitDy=0;" parent="1" source="ZXX-v3CZGw-HriFd5jeJ-102" target="ZXX-v3CZGw-HriFd5jeJ-106" edge="1">
          <mxGeometry relative="1" as="geometry" />
        </mxCell>
        <mxCell id="ZXX-v3CZGw-HriFd5jeJ-109" style="edgeStyle=orthogonalEdgeStyle;rounded=0;orthogonalLoop=1;jettySize=auto;html=1;exitX=0.5;exitY=1;exitDx=0;exitDy=0;" parent="1" source="ZXX-v3CZGw-HriFd5jeJ-102" target="ZXX-v3CZGw-HriFd5jeJ-107" edge="1">
          <mxGeometry relative="1" as="geometry" />
        </mxCell>
        <mxCell id="ZXX-v3CZGw-HriFd5jeJ-110" style="edgeStyle=orthogonalEdgeStyle;rounded=0;orthogonalLoop=1;jettySize=auto;html=1;exitX=0.5;exitY=1;exitDx=0;exitDy=0;" parent="1" source="ZXX-v3CZGw-HriFd5jeJ-102" target="ZXX-v3CZGw-HriFd5jeJ-108" edge="1">
          <mxGeometry relative="1" as="geometry" />
        </mxCell>
        <mxCell id="ZXX-v3CZGw-HriFd5jeJ-102" value=".bh var_decl.bs" style="ellipse;whiteSpace=wrap;html=1;rounded=0;shadow=1;comic=0;labelBackgroundColor=none;strokeWidth=1;fontFamily=Verdana;fontSize=12;align=center;" parent="1" vertex="1">
          <mxGeometry x="1100" y="890" width="75" height="50" as="geometry" />
        </mxCell>
        <mxCell id="ZXX-v3CZGw-HriFd5jeJ-103" value="KW_VAR" style="ellipse;whiteSpace=wrap;html=1;rounded=0;shadow=1;comic=0;labelBackgroundColor=none;strokeWidth=1;fontFamily=Verdana;fontSize=12;align=center;" parent="1" vertex="1">
          <mxGeometry x="700" y="980" width="75" height="50" as="geometry" />
        </mxCell>
        <mxCell id="ZXX-v3CZGw-HriFd5jeJ-104" value=":" style="ellipse;whiteSpace=wrap;html=1;rounded=0;shadow=1;comic=0;labelBackgroundColor=none;strokeWidth=1;fontFamily=Verdana;fontSize=12;align=center;" parent="1" vertex="1">
          <mxGeometry x="1015" y="980" width="75" height="50" as="geometry" />
        </mxCell>
        <mxCell id="ZXX-v3CZGw-HriFd5jeJ-105" value="ID.l" style="ellipse;whiteSpace=wrap;html=1;rounded=0;shadow=1;comic=0;labelBackgroundColor=none;strokeWidth=1;fontFamily=Verdana;fontSize=12;align=center;" parent="1" vertex="1">
          <mxGeometry x="845" y="980" width="75" height="50" as="geometry" />
        </mxCell>
        <mxCell id="ZXX-v3CZGw-HriFd5jeJ-106" value="type.t" style="ellipse;whiteSpace=wrap;html=1;rounded=0;shadow=1;comic=0;labelBackgroundColor=none;strokeWidth=1;fontFamily=Verdana;fontSize=12;align=center;" parent="1" vertex="1">
          <mxGeometry x="1185" y="980" width="75" height="50" as="geometry" />
        </mxCell>
        <mxCell id="ZXX-v3CZGw-HriFd5jeJ-107" value=":=" style="ellipse;whiteSpace=wrap;html=1;rounded=0;shadow=1;comic=0;labelBackgroundColor=none;strokeWidth=1;fontFamily=Verdana;fontSize=12;align=center;" parent="1" vertex="1">
          <mxGeometry x="1360" y="980" width="75" height="50" as="geometry" />
        </mxCell>
        <mxCell id="ZXX-v3CZGw-HriFd5jeJ-108" value=".bh exp.bs" style="ellipse;whiteSpace=wrap;html=1;rounded=0;shadow=1;comic=0;labelBackgroundColor=none;strokeWidth=1;fontFamily=Verdana;fontSize=12;align=center;" parent="1" vertex="1">
          <mxGeometry x="1540" y="980" width="75" height="50" as="geometry" />
        </mxCell>
        <mxCell id="ZXX-v3CZGw-HriFd5jeJ-111" style="edgeStyle=orthogonalEdgeStyle;rounded=0;orthogonalLoop=1;jettySize=auto;html=1;exitX=0.5;exitY=1;exitDx=0;exitDy=0;" parent="1" source="ZXX-v3CZGw-HriFd5jeJ-115" target="ZXX-v3CZGw-HriFd5jeJ-117" edge="1">
          <mxGeometry relative="1" as="geometry" />
        </mxCell>
        <mxCell id="ZXX-v3CZGw-HriFd5jeJ-112" style="edgeStyle=orthogonalEdgeStyle;rounded=0;orthogonalLoop=1;jettySize=auto;html=1;exitX=0.5;exitY=1;exitDx=0;exitDy=0;" parent="1" source="ZXX-v3CZGw-HriFd5jeJ-115" target="ZXX-v3CZGw-HriFd5jeJ-118" edge="1">
          <mxGeometry relative="1" as="geometry" />
        </mxCell>
        <mxCell id="ZXX-v3CZGw-HriFd5jeJ-113" style="edgeStyle=orthogonalEdgeStyle;rounded=0;orthogonalLoop=1;jettySize=auto;html=1;exitX=0.5;exitY=1;exitDx=0;exitDy=0;" parent="1" source="ZXX-v3CZGw-HriFd5jeJ-115" target="ZXX-v3CZGw-HriFd5jeJ-116" edge="1">
          <mxGeometry relative="1" as="geometry" />
        </mxCell>
        <mxCell id="ZXX-v3CZGw-HriFd5jeJ-114" style="edgeStyle=orthogonalEdgeStyle;rounded=0;orthogonalLoop=1;jettySize=auto;html=1;exitX=0.5;exitY=1;exitDx=0;exitDy=0;" parent="1" source="ZXX-v3CZGw-HriFd5jeJ-115" target="ZXX-v3CZGw-HriFd5jeJ-119" edge="1">
          <mxGeometry relative="1" as="geometry" />
        </mxCell>
        <mxCell id="ZXX-v3CZGw-HriFd5jeJ-115" value=".bh var_decl.bs" style="ellipse;whiteSpace=wrap;html=1;rounded=0;shadow=1;comic=0;labelBackgroundColor=none;strokeWidth=1;fontFamily=Verdana;fontSize=12;align=center;" parent="1" vertex="1">
          <mxGeometry x="1980" y="900" width="75" height="50" as="geometry" />
        </mxCell>
        <mxCell id="ZXX-v3CZGw-HriFd5jeJ-116" value="KW_VAR" style="ellipse;whiteSpace=wrap;html=1;rounded=0;shadow=1;comic=0;labelBackgroundColor=none;strokeWidth=1;fontFamily=Verdana;fontSize=12;align=center;" parent="1" vertex="1">
          <mxGeometry x="1740" y="990" width="75" height="50" as="geometry" />
        </mxCell>
        <mxCell id="ZXX-v3CZGw-HriFd5jeJ-117" value=":=" style="ellipse;whiteSpace=wrap;html=1;rounded=0;shadow=1;comic=0;labelBackgroundColor=none;strokeWidth=1;fontFamily=Verdana;fontSize=12;align=center;" parent="1" vertex="1">
          <mxGeometry x="2055" y="990" width="75" height="50" as="geometry" />
        </mxCell>
        <mxCell id="ZXX-v3CZGw-HriFd5jeJ-118" value="ID.l" style="ellipse;whiteSpace=wrap;html=1;rounded=0;shadow=1;comic=0;labelBackgroundColor=none;strokeWidth=1;fontFamily=Verdana;fontSize=12;align=center;" parent="1" vertex="1">
          <mxGeometry x="1885" y="990" width="75" height="50" as="geometry" />
        </mxCell>
        <mxCell id="ZXX-v3CZGw-HriFd5jeJ-119" value=".bh exp.bs" style="ellipse;whiteSpace=wrap;html=1;rounded=0;shadow=1;comic=0;labelBackgroundColor=none;strokeWidth=1;fontFamily=Verdana;fontSize=12;align=center;" parent="1" vertex="1">
          <mxGeometry x="2225" y="990" width="75" height="50" as="geometry" />
        </mxCell>
        <mxCell id="ZXX-v3CZGw-HriFd5jeJ-120" value="Îµ" style="ellipse;whiteSpace=wrap;html=1;rounded=0;shadow=1;comic=0;labelBackgroundColor=none;strokeWidth=1;fontFamily=Verdana;fontSize=12;align=center;" parent="1" vertex="1">
          <mxGeometry x="292.5" y="1250" width="75" height="50" as="geometry" />
        </mxCell>
        <mxCell id="ZXX-v3CZGw-HriFd5jeJ-122" style="edgeStyle=orthogonalEdgeStyle;rounded=0;orthogonalLoop=1;jettySize=auto;html=1;exitX=0.5;exitY=1;exitDx=0;exitDy=0;" parent="1" source="ZXX-v3CZGw-HriFd5jeJ-123" target="ZXX-v3CZGw-HriFd5jeJ-124" edge="1">
          <mxGeometry relative="1" as="geometry" />
        </mxCell>
        <mxCell id="ZXX-v3CZGw-HriFd5jeJ-126" style="edgeStyle=orthogonalEdgeStyle;rounded=0;orthogonalLoop=1;jettySize=auto;html=1;exitX=0.5;exitY=1;exitDx=0;exitDy=0;" parent="1" source="ZXX-v3CZGw-HriFd5jeJ-123" target="ZXX-v3CZGw-HriFd5jeJ-125" edge="1">
          <mxGeometry relative="1" as="geometry" />
        </mxCell>
        <mxCell id="ZXX-v3CZGw-HriFd5jeJ-123" value=".bh opt_proc_return_type.bs" style="ellipse;whiteSpace=wrap;html=1;rounded=0;shadow=1;comic=0;labelBackgroundColor=none;strokeWidth=1;fontFamily=Verdana;fontSize=12;align=center;" parent="1" vertex="1">
          <mxGeometry x="665" y="1170" width="75" height="50" as="geometry" />
        </mxCell>
        <mxCell id="ZXX-v3CZGw-HriFd5jeJ-124" value=":" style="ellipse;whiteSpace=wrap;html=1;rounded=0;shadow=1;comic=0;labelBackgroundColor=none;strokeWidth=1;fontFamily=Verdana;fontSize=12;align=center;" parent="1" vertex="1">
          <mxGeometry x="580" y="1260" width="75" height="50" as="geometry" />
        </mxCell>
        <mxCell id="ZXX-v3CZGw-HriFd5jeJ-125" value="type.t" style="ellipse;whiteSpace=wrap;html=1;rounded=0;shadow=1;comic=0;labelBackgroundColor=none;strokeWidth=1;fontFamily=Verdana;fontSize=12;align=center;" parent="1" vertex="1">
          <mxGeometry x="740" y="1260" width="75" height="50" as="geometry" />
        </mxCell>
        <mxCell id="ZXX-v3CZGw-HriFd5jeJ-127" value="ID.l" style="ellipse;whiteSpace=wrap;html=1;rounded=0;shadow=1;comic=0;labelBackgroundColor=none;strokeWidth=1;fontFamily=Verdana;fontSize=12;align=center;" parent="1" vertex="1">
          <mxGeometry x="310" y="1530" width="75" height="50" as="geometry" />
        </mxCell>
        <mxCell id="ZXX-v3CZGw-HriFd5jeJ-128" value=".bh opt_paramfield_decl_list_comma.bs" style="ellipse;whiteSpace=wrap;html=1;rounded=0;shadow=1;comic=0;labelBackgroundColor=none;strokeWidth=1;fontFamily=Verdana;fontSize=12;align=center;" parent="1" vertex="1">
          <mxGeometry x="570" y="1530" width="75" height="50" as="geometry" />
        </mxCell>
        <mxCell id="ZXX-v3CZGw-HriFd5jeJ-129" value=".bh opt_proc_return_type.bs" style="ellipse;whiteSpace=wrap;html=1;rounded=0;shadow=1;comic=0;labelBackgroundColor=none;strokeWidth=1;fontFamily=Verdana;fontSize=12;align=center;" parent="1" vertex="1">
          <mxGeometry x="840" y="1530" width="75" height="50" as="geometry" />
        </mxCell>
        <mxCell id="ZXX-v3CZGw-HriFd5jeJ-130" value="KW_BEGIN" style="ellipse;whiteSpace=wrap;html=1;rounded=0;shadow=1;comic=0;labelBackgroundColor=none;strokeWidth=1;fontFamily=Verdana;fontSize=12;align=center;" parent="1" vertex="1">
          <mxGeometry x="960" y="1530" width="75" height="50" as="geometry" />
        </mxCell>
        <mxCell id="ZXX-v3CZGw-HriFd5jeJ-131" value="KW_END" style="ellipse;whiteSpace=wrap;html=1;rounded=0;shadow=1;comic=0;labelBackgroundColor=none;strokeWidth=1;fontFamily=Verdana;fontSize=12;align=center;" parent="1" vertex="1">
          <mxGeometry x="1170" y="1530" width="75" height="50" as="geometry" />
        </mxCell>
        <mxCell id="ZXX-v3CZGw-HriFd5jeJ-132" value=".bh proc_body.bs" style="ellipse;whiteSpace=wrap;html=1;rounded=0;shadow=1;comic=0;labelBackgroundColor=none;strokeWidth=1;fontFamily=Verdana;fontSize=12;align=center;" parent="1" vertex="1">
          <mxGeometry x="1060" y="1530" width="75" height="50" as="geometry" />
        </mxCell>
        <mxCell id="ZXX-v3CZGw-HriFd5jeJ-133" value="KW_PROCEDURE" style="ellipse;whiteSpace=wrap;html=1;rounded=0;shadow=1;comic=0;labelBackgroundColor=none;strokeWidth=1;fontFamily=Verdana;fontSize=12;align=center;" parent="1" vertex="1">
          <mxGeometry x="202.5" y="1530" width="75" height="50" as="geometry" />
        </mxCell>
        <mxCell id="ZXX-v3CZGw-HriFd5jeJ-134" value="(" style="ellipse;whiteSpace=wrap;html=1;rounded=0;shadow=1;comic=0;labelBackgroundColor=none;strokeWidth=1;fontFamily=Verdana;fontSize=12;align=center;" parent="1" vertex="1">
          <mxGeometry x="420" y="1530" width="75" height="50" as="geometry" />
        </mxCell>
        <mxCell id="ZXX-v3CZGw-HriFd5jeJ-135" value=")" style="ellipse;whiteSpace=wrap;html=1;rounded=0;shadow=1;comic=0;labelBackgroundColor=none;strokeWidth=1;fontFamily=Verdana;fontSize=12;align=center;" parent="1" vertex="1">
          <mxGeometry x="720" y="1530" width="75" height="50" as="geometry" />
        </mxCell>
        <mxCell id="ZXX-v3CZGw-HriFd5jeJ-146" value=".bh opt_stmt_list.bs" style="ellipse;whiteSpace=wrap;html=1;rounded=0;shadow=1;comic=0;labelBackgroundColor=none;strokeWidth=1;fontFamily=Verdana;fontSize=12;align=center;" parent="1" vertex="1">
          <mxGeometry x="460" y="1810" width="75" height="50" as="geometry" />
        </mxCell>
        <mxCell id="ZXX-v3CZGw-HriFd5jeJ-147" value=".bh opt_decl_list.bs" style="ellipse;whiteSpace=wrap;html=1;rounded=0;shadow=1;comic=0;labelBackgroundColor=none;strokeWidth=1;fontFamily=Verdana;fontSize=12;align=center;" parent="1" vertex="1">
          <mxGeometry x="655" y="1810" width="75" height="50" as="geometry" />
        </mxCell>
        <mxCell id="ZXX-v3CZGw-HriFd5jeJ-152" style="edgeStyle=orthogonalEdgeStyle;rounded=0;orthogonalLoop=1;jettySize=auto;html=1;exitX=0.5;exitY=1;exitDx=0;exitDy=0;" parent="1" source="ZXX-v3CZGw-HriFd5jeJ-148" target="ZXX-v3CZGw-HriFd5jeJ-149" edge="1">
          <mxGeometry relative="1" as="geometry" />
        </mxCell>
        <mxCell id="ZXX-v3CZGw-HriFd5jeJ-153" style="edgeStyle=orthogonalEdgeStyle;rounded=0;orthogonalLoop=1;jettySize=auto;html=1;exitX=0.5;exitY=1;exitDx=0;exitDy=0;" parent="1" source="ZXX-v3CZGw-HriFd5jeJ-148" target="ZXX-v3CZGw-HriFd5jeJ-147" edge="1">
          <mxGeometry relative="1" as="geometry" />
        </mxCell>
        <mxCell id="ZXX-v3CZGw-HriFd5jeJ-154" style="edgeStyle=orthogonalEdgeStyle;rounded=0;orthogonalLoop=1;jettySize=auto;html=1;exitX=0.5;exitY=1;exitDx=0;exitDy=0;" parent="1" source="ZXX-v3CZGw-HriFd5jeJ-148" target="ZXX-v3CZGw-HriFd5jeJ-150" edge="1">
          <mxGeometry relative="1" as="geometry" />
        </mxCell>
        <mxCell id="ZXX-v3CZGw-HriFd5jeJ-148" value=".bh proc_body.bs" style="ellipse;whiteSpace=wrap;html=1;rounded=0;shadow=1;comic=0;labelBackgroundColor=none;strokeWidth=1;fontFamily=Verdana;fontSize=12;align=center;" parent="1" vertex="1">
          <mxGeometry x="795" y="1720" width="75" height="50" as="geometry" />
        </mxCell>
        <mxCell id="ZXX-v3CZGw-HriFd5jeJ-149" value="KW_IN" style="ellipse;whiteSpace=wrap;html=1;rounded=0;shadow=1;comic=0;labelBackgroundColor=none;strokeWidth=1;fontFamily=Verdana;fontSize=12;align=center;" parent="1" vertex="1">
          <mxGeometry x="795" y="1810" width="75" height="50" as="geometry" />
        </mxCell>
        <mxCell id="ZXX-v3CZGw-HriFd5jeJ-150" value=".bh opt_stmt_list.bs" style="ellipse;whiteSpace=wrap;html=1;rounded=0;shadow=1;comic=0;labelBackgroundColor=none;strokeWidth=1;fontFamily=Verdana;fontSize=12;align=center;" parent="1" vertex="1">
          <mxGeometry x="930" y="1810" width="75" height="50" as="geometry" />
        </mxCell>
        <mxCell id="ZXX-v3CZGw-HriFd5jeJ-155" value="KW_STRUCT" style="ellipse;whiteSpace=wrap;html=1;rounded=0;shadow=1;comic=0;labelBackgroundColor=none;strokeWidth=1;fontFamily=Verdana;fontSize=12;align=center;" parent="1" vertex="1">
          <mxGeometry x="340" y="2080" width="75" height="50" as="geometry" />
        </mxCell>
        <mxCell id="ZXX-v3CZGw-HriFd5jeJ-156" value="ID.l" style="ellipse;whiteSpace=wrap;html=1;rounded=0;shadow=1;comic=0;labelBackgroundColor=none;strokeWidth=1;fontFamily=Verdana;fontSize=12;align=center;" parent="1" vertex="1">
          <mxGeometry x="462.5" y="2080" width="75" height="50" as="geometry" />
        </mxCell>
        <mxCell id="ZXX-v3CZGw-HriFd5jeJ-157" value="{" style="ellipse;whiteSpace=wrap;html=1;rounded=0;shadow=1;comic=0;labelBackgroundColor=none;strokeWidth=1;fontFamily=Verdana;fontSize=12;align=center;" parent="1" vertex="1">
          <mxGeometry x="595" y="2080" width="75" height="50" as="geometry" />
        </mxCell>
        <mxCell id="ZXX-v3CZGw-HriFd5jeJ-158" value="}" style="ellipse;whiteSpace=wrap;html=1;rounded=0;shadow=1;comic=0;labelBackgroundColor=none;strokeWidth=1;fontFamily=Verdana;fontSize=12;align=center;" parent="1" vertex="1">
          <mxGeometry x="957.5" y="2080" width="75" height="50" as="geometry" />
        </mxCell>
        <mxCell id="ZXX-v3CZGw-HriFd5jeJ-159" value=".bh opt_paramfield_decl_list_semicolumn.bs" style="ellipse;whiteSpace=wrap;html=1;rounded=0;shadow=1;comic=0;labelBackgroundColor=none;strokeWidth=1;fontFamily=Verdana;fontSize=12;align=center;" parent="1" vertex="1">
          <mxGeometry x="775" y="2080" width="75" height="50" as="geometry" />
        </mxCell>
        <mxCell id="ZXX-v3CZGw-HriFd5jeJ-166" value="ID.l" style="ellipse;whiteSpace=wrap;html=1;rounded=0;shadow=1;comic=0;labelBackgroundColor=none;strokeWidth=1;fontFamily=Verdana;fontSize=12;align=center;" parent="1" vertex="1">
          <mxGeometry x="330" y="2320" width="75" height="50" as="geometry" />
        </mxCell>
        <mxCell id="ZXX-v3CZGw-HriFd5jeJ-167" value=":" style="ellipse;whiteSpace=wrap;html=1;rounded=0;shadow=1;comic=0;labelBackgroundColor=none;strokeWidth=1;fontFamily=Verdana;fontSize=12;align=center;" parent="1" vertex="1">
          <mxGeometry x="440" y="2320" width="75" height="50" as="geometry" />
        </mxCell>
        <mxCell id="ZXX-v3CZGw-HriFd5jeJ-168" value="type.t" style="ellipse;whiteSpace=wrap;html=1;rounded=0;shadow=1;comic=0;labelBackgroundColor=none;strokeWidth=1;fontFamily=Verdana;fontSize=12;align=center;" parent="1" vertex="1">
          <mxGeometry x="550" y="2320" width="75" height="50" as="geometry" />
        </mxCell>
        <mxCell id="ZXX-v3CZGw-HriFd5jeJ-172" value="Îµ" style="ellipse;whiteSpace=wrap;html=1;rounded=0;shadow=1;comic=0;labelBackgroundColor=none;strokeWidth=1;fontFamily=Verdana;fontSize=12;align=center;" parent="1" vertex="1">
          <mxGeometry x="438" y="2590" width="75" height="50" as="geometry" />
        </mxCell>
        <mxCell id="ZXX-v3CZGw-HriFd5jeJ-178" style="edgeStyle=orthogonalEdgeStyle;rounded=0;orthogonalLoop=1;jettySize=auto;html=1;exitX=0.5;exitY=1;exitDx=0;exitDy=0;" parent="1" source="ZXX-v3CZGw-HriFd5jeJ-175" target="ZXX-v3CZGw-HriFd5jeJ-177" edge="1">
          <mxGeometry relative="1" as="geometry" />
        </mxCell>
        <mxCell id="ZXX-v3CZGw-HriFd5jeJ-175" value=".bh opt_paramfield_decl_list_comma.bs" style="ellipse;whiteSpace=wrap;html=1;rounded=0;shadow=1;comic=0;labelBackgroundColor=none;strokeWidth=1;fontFamily=Verdana;fontSize=12;align=center;" parent="1" vertex="1">
          <mxGeometry x="770" y="2490" width="75" height="50" as="geometry" />
        </mxCell>
        <mxCell id="ZXX-v3CZGw-HriFd5jeJ-177" value=".bh paramfield_decl_list_comma.bs" style="ellipse;whiteSpace=wrap;html=1;rounded=0;shadow=1;comic=0;labelBackgroundColor=none;strokeWidth=1;fontFamily=Verdana;fontSize=12;align=center;" parent="1" vertex="1">
          <mxGeometry x="770" y="2590" width="75" height="50" as="geometry" />
        </mxCell>
        <mxCell id="Opo9EoXG69oaY7-Oztma-1" value="&amp;amp;&amp;amp;" style="ellipse;whiteSpace=wrap;html=1;rounded=0;shadow=1;comic=0;labelBackgroundColor=none;strokeWidth=1;fontFamily=Verdana;fontSize=12;align=center;" parent="1" vertex="1">
          <mxGeometry x="442.5" y="2840" width="75" height="50" as="geometry" />
        </mxCell>
        <mxCell id="Opo9EoXG69oaY7-Oztma-7" value=".bh exp.bs" style="ellipse;whiteSpace=wrap;html=1;rounded=0;shadow=1;comic=0;labelBackgroundColor=none;strokeWidth=1;fontFamily=Verdana;fontSize=12;align=center;" parent="1" vertex="1">
          <mxGeometry x="340" y="2840" width="75" height="50" as="geometry" />
        </mxCell>
        <mxCell id="Opo9EoXG69oaY7-Oztma-8" value=".bh exp.bs" style="ellipse;whiteSpace=wrap;html=1;rounded=0;shadow=1;comic=0;labelBackgroundColor=none;strokeWidth=1;fontFamily=Verdana;fontSize=12;align=center;" parent="1" vertex="1">
          <mxGeometry x="545" y="2840" width="75" height="50" as="geometry" />
        </mxCell>
        <mxCell id="Opo9EoXG69oaY7-Oztma-14" style="edgeStyle=orthogonalEdgeStyle;rounded=0;orthogonalLoop=1;jettySize=auto;html=1;exitX=0.5;exitY=1;exitDx=0;exitDy=0;" parent="1" source="Opo9EoXG69oaY7-Oztma-17" target="Opo9EoXG69oaY7-Oztma-18" edge="1">
          <mxGeometry relative="1" as="geometry" />
        </mxCell>
        <mxCell id="Opo9EoXG69oaY7-Oztma-16" style="edgeStyle=orthogonalEdgeStyle;rounded=0;orthogonalLoop=1;jettySize=auto;html=1;exitX=0.5;exitY=1;exitDx=0;exitDy=0;" parent="1" source="Opo9EoXG69oaY7-Oztma-17" target="Opo9EoXG69oaY7-Oztma-20" edge="1">
          <mxGeometry relative="1" as="geometry" />
        </mxCell>
        <mxCell id="Opo9EoXG69oaY7-Oztma-17" value=".bh exp.bs" style="ellipse;whiteSpace=wrap;html=1;rounded=0;shadow=1;comic=0;labelBackgroundColor=none;strokeWidth=1;fontFamily=Verdana;fontSize=12;align=center;" parent="1" vertex="1">
          <mxGeometry x="737.5" y="2750" width="75" height="50" as="geometry" />
        </mxCell>
        <mxCell id="Opo9EoXG69oaY7-Oztma-18" value="not" style="ellipse;whiteSpace=wrap;html=1;rounded=0;shadow=1;comic=0;labelBackgroundColor=none;strokeWidth=1;fontFamily=Verdana;fontSize=12;align=center;" parent="1" vertex="1">
          <mxGeometry x="667.5" y="2840" width="75" height="50" as="geometry" />
        </mxCell>
        <mxCell id="Opo9EoXG69oaY7-Oztma-20" value=".bh exp.bs" style="ellipse;whiteSpace=wrap;html=1;rounded=0;shadow=1;comic=0;labelBackgroundColor=none;strokeWidth=1;fontFamily=Verdana;fontSize=12;align=center;" parent="1" vertex="1">
          <mxGeometry x="792.5" y="2840" width="75" height="50" as="geometry" />
        </mxCell>
        <mxCell id="Opo9EoXG69oaY7-Oztma-21" style="edgeStyle=orthogonalEdgeStyle;rounded=0;orthogonalLoop=1;jettySize=auto;html=1;exitX=0.5;exitY=1;exitDx=0;exitDy=0;" parent="1" source="Opo9EoXG69oaY7-Oztma-24" target="Opo9EoXG69oaY7-Oztma-25" edge="1">
          <mxGeometry relative="1" as="geometry" />
        </mxCell>
        <mxCell id="Opo9EoXG69oaY7-Oztma-22" style="edgeStyle=orthogonalEdgeStyle;rounded=0;orthogonalLoop=1;jettySize=auto;html=1;exitX=0.5;exitY=1;exitDx=0;exitDy=0;" parent="1" source="Opo9EoXG69oaY7-Oztma-24" target="Opo9EoXG69oaY7-Oztma-26" edge="1">
          <mxGeometry relative="1" as="geometry" />
        </mxCell>
        <mxCell id="Opo9EoXG69oaY7-Oztma-23" style="edgeStyle=orthogonalEdgeStyle;rounded=0;orthogonalLoop=1;jettySize=auto;html=1;exitX=0.5;exitY=1;exitDx=0;exitDy=0;" parent="1" source="Opo9EoXG69oaY7-Oztma-24" target="Opo9EoXG69oaY7-Oztma-27" edge="1">
          <mxGeometry relative="1" as="geometry" />
        </mxCell>
        <mxCell id="Opo9EoXG69oaY7-Oztma-24" value=".bh exp.bs" style="ellipse;whiteSpace=wrap;html=1;rounded=0;shadow=1;comic=0;labelBackgroundColor=none;strokeWidth=1;fontFamily=Verdana;fontSize=12;align=center;" parent="1" vertex="1">
          <mxGeometry x="1032.5" y="2750" width="75" height="50" as="geometry" />
        </mxCell>
        <mxCell id="Opo9EoXG69oaY7-Oztma-25" value="&amp;lt;" style="ellipse;whiteSpace=wrap;html=1;rounded=0;shadow=1;comic=0;labelBackgroundColor=none;strokeWidth=1;fontFamily=Verdana;fontSize=12;align=center;" parent="1" vertex="1">
          <mxGeometry x="1032.5" y="2840" width="75" height="50" as="geometry" />
        </mxCell>
        <mxCell id="Opo9EoXG69oaY7-Oztma-26" value=".bh exp.bs" style="ellipse;whiteSpace=wrap;html=1;rounded=0;shadow=1;comic=0;labelBackgroundColor=none;strokeWidth=1;fontFamily=Verdana;fontSize=12;align=center;" parent="1" vertex="1">
          <mxGeometry x="930" y="2840" width="75" height="50" as="geometry" />
        </mxCell>
        <mxCell id="Opo9EoXG69oaY7-Oztma-27" value=".bh exp.bs" style="ellipse;whiteSpace=wrap;html=1;rounded=0;shadow=1;comic=0;labelBackgroundColor=none;strokeWidth=1;fontFamily=Verdana;fontSize=12;align=center;" parent="1" vertex="1">
          <mxGeometry x="1135" y="2840" width="75" height="50" as="geometry" />
        </mxCell>
        <mxCell id="Opo9EoXG69oaY7-Oztma-28" style="edgeStyle=orthogonalEdgeStyle;rounded=0;orthogonalLoop=1;jettySize=auto;html=1;exitX=0.5;exitY=1;exitDx=0;exitDy=0;" parent="1" source="Opo9EoXG69oaY7-Oztma-31" target="Opo9EoXG69oaY7-Oztma-32" edge="1">
          <mxGeometry relative="1" as="geometry" />
        </mxCell>
        <mxCell id="Opo9EoXG69oaY7-Oztma-29" style="edgeStyle=orthogonalEdgeStyle;rounded=0;orthogonalLoop=1;jettySize=auto;html=1;exitX=0.5;exitY=1;exitDx=0;exitDy=0;" parent="1" source="Opo9EoXG69oaY7-Oztma-31" target="Opo9EoXG69oaY7-Oztma-33" edge="1">
          <mxGeometry relative="1" as="geometry" />
        </mxCell>
        <mxCell id="Opo9EoXG69oaY7-Oztma-30" style="edgeStyle=orthogonalEdgeStyle;rounded=0;orthogonalLoop=1;jettySize=auto;html=1;exitX=0.5;exitY=1;exitDx=0;exitDy=0;" parent="1" source="Opo9EoXG69oaY7-Oztma-31" target="Opo9EoXG69oaY7-Oztma-34" edge="1">
          <mxGeometry relative="1" as="geometry" />
        </mxCell>
        <mxCell id="Opo9EoXG69oaY7-Oztma-31" value=".bh exp.bs" style="ellipse;whiteSpace=wrap;html=1;rounded=0;shadow=1;comic=0;labelBackgroundColor=none;strokeWidth=1;fontFamily=Verdana;fontSize=12;align=center;" parent="1" vertex="1">
          <mxGeometry x="1412.5" y="2750" width="75" height="50" as="geometry" />
        </mxCell>
        <mxCell id="Opo9EoXG69oaY7-Oztma-32" value="+" style="ellipse;whiteSpace=wrap;html=1;rounded=0;shadow=1;comic=0;labelBackgroundColor=none;strokeWidth=1;fontFamily=Verdana;fontSize=12;align=center;" parent="1" vertex="1">
          <mxGeometry x="1412.5" y="2840" width="75" height="50" as="geometry" />
        </mxCell>
        <mxCell id="Opo9EoXG69oaY7-Oztma-33" value=".bh exp.bs" style="ellipse;whiteSpace=wrap;html=1;rounded=0;shadow=1;comic=0;labelBackgroundColor=none;strokeWidth=1;fontFamily=Verdana;fontSize=12;align=center;" parent="1" vertex="1">
          <mxGeometry x="1310" y="2840" width="75" height="50" as="geometry" />
        </mxCell>
        <mxCell id="Opo9EoXG69oaY7-Oztma-34" value=".bh exp.bs" style="ellipse;whiteSpace=wrap;html=1;rounded=0;shadow=1;comic=0;labelBackgroundColor=none;strokeWidth=1;fontFamily=Verdana;fontSize=12;align=center;" parent="1" vertex="1">
          <mxGeometry x="1515" y="2840" width="75" height="50" as="geometry" />
        </mxCell>
        <mxCell id="Opo9EoXG69oaY7-Oztma-35" style="edgeStyle=orthogonalEdgeStyle;rounded=0;orthogonalLoop=1;jettySize=auto;html=1;exitX=0.5;exitY=1;exitDx=0;exitDy=0;" parent="1" source="Opo9EoXG69oaY7-Oztma-37" target="Opo9EoXG69oaY7-Oztma-38" edge="1">
          <mxGeometry relative="1" as="geometry" />
        </mxCell>
        <mxCell id="Opo9EoXG69oaY7-Oztma-36" style="edgeStyle=orthogonalEdgeStyle;rounded=0;orthogonalLoop=1;jettySize=auto;html=1;exitX=0.5;exitY=1;exitDx=0;exitDy=0;" parent="1" source="Opo9EoXG69oaY7-Oztma-37" target="Opo9EoXG69oaY7-Oztma-39" edge="1">
          <mxGeometry relative="1" as="geometry" />
        </mxCell>
        <mxCell id="Opo9EoXG69oaY7-Oztma-37" value=".bh exp.bs" style="ellipse;whiteSpace=wrap;html=1;rounded=0;shadow=1;comic=0;labelBackgroundColor=none;strokeWidth=1;fontFamily=Verdana;fontSize=12;align=center;" parent="1" vertex="1">
          <mxGeometry x="1760" y="2750" width="75" height="50" as="geometry" />
        </mxCell>
        <mxCell id="Opo9EoXG69oaY7-Oztma-38" value="-" style="ellipse;whiteSpace=wrap;html=1;rounded=0;shadow=1;comic=0;labelBackgroundColor=none;strokeWidth=1;fontFamily=Verdana;fontSize=12;align=center;" parent="1" vertex="1">
          <mxGeometry x="1690" y="2840" width="75" height="50" as="geometry" />
        </mxCell>
        <mxCell id="Opo9EoXG69oaY7-Oztma-39" value=".bh exp.bs" style="ellipse;whiteSpace=wrap;html=1;rounded=0;shadow=1;comic=0;labelBackgroundColor=none;strokeWidth=1;fontFamily=Verdana;fontSize=12;align=center;" parent="1" vertex="1">
          <mxGeometry x="1815" y="2840" width="75" height="50" as="geometry" />
        </mxCell>
        <mxCell id="Opo9EoXG69oaY7-Oztma-40" style="edgeStyle=orthogonalEdgeStyle;rounded=0;orthogonalLoop=1;jettySize=auto;html=1;exitX=0.5;exitY=1;exitDx=0;exitDy=0;" parent="1" source="Opo9EoXG69oaY7-Oztma-41" target="Opo9EoXG69oaY7-Oztma-42" edge="1">
          <mxGeometry relative="1" as="geometry" />
        </mxCell>
        <mxCell id="Opo9EoXG69oaY7-Oztma-41" value=".bh exp.bs" style="ellipse;whiteSpace=wrap;html=1;rounded=0;shadow=1;comic=0;labelBackgroundColor=none;strokeWidth=1;fontFamily=Verdana;fontSize=12;align=center;" parent="1" vertex="1">
          <mxGeometry x="340" y="2980" width="75" height="50" as="geometry" />
        </mxCell>
        <mxCell id="Opo9EoXG69oaY7-Oztma-42" value="literal.t" style="ellipse;whiteSpace=wrap;html=1;rounded=0;shadow=1;comic=0;labelBackgroundColor=none;strokeWidth=1;fontFamily=Verdana;fontSize=12;align=center;" parent="1" vertex="1">
          <mxGeometry x="340" y="3070" width="75" height="50" as="geometry" />
        </mxCell>
        <mxCell id="Opo9EoXG69oaY7-Oztma-43" style="edgeStyle=orthogonalEdgeStyle;rounded=0;orthogonalLoop=1;jettySize=auto;html=1;exitX=0.5;exitY=1;exitDx=0;exitDy=0;" parent="1" source="Opo9EoXG69oaY7-Oztma-44" target="Opo9EoXG69oaY7-Oztma-45" edge="1">
          <mxGeometry relative="1" as="geometry" />
        </mxCell>
        <mxCell id="Opo9EoXG69oaY7-Oztma-44" value=".bh exp.bs" style="ellipse;whiteSpace=wrap;html=1;rounded=0;shadow=1;comic=0;labelBackgroundColor=none;strokeWidth=1;fontFamily=Verdana;fontSize=12;align=center;" parent="1" vertex="1">
          <mxGeometry x="560" y="2980" width="75" height="50" as="geometry" />
        </mxCell>
        <mxCell id="Opo9EoXG69oaY7-Oztma-45" value=".bh call_stmt.bs" style="ellipse;whiteSpace=wrap;html=1;rounded=0;shadow=1;comic=0;labelBackgroundColor=none;strokeWidth=1;fontFamily=Verdana;fontSize=12;align=center;" parent="1" vertex="1">
          <mxGeometry x="560" y="3070" width="75" height="50" as="geometry" />
        </mxCell>
        <mxCell id="Opo9EoXG69oaY7-Oztma-46" style="edgeStyle=orthogonalEdgeStyle;rounded=0;orthogonalLoop=1;jettySize=auto;html=1;exitX=0.5;exitY=1;exitDx=0;exitDy=0;" parent="1" source="Opo9EoXG69oaY7-Oztma-47" target="Opo9EoXG69oaY7-Oztma-48" edge="1">
          <mxGeometry relative="1" as="geometry" />
        </mxCell>
        <mxCell id="Opo9EoXG69oaY7-Oztma-69" style="edgeStyle=orthogonalEdgeStyle;rounded=0;orthogonalLoop=1;jettySize=auto;html=1;exitX=0.5;exitY=1;exitDx=0;exitDy=0;" parent="1" source="Opo9EoXG69oaY7-Oztma-47" target="Opo9EoXG69oaY7-Oztma-68" edge="1">
          <mxGeometry relative="1" as="geometry" />
        </mxCell>
        <mxCell id="Opo9EoXG69oaY7-Oztma-47" value=".bh exp.bs" style="ellipse;whiteSpace=wrap;html=1;rounded=0;shadow=1;comic=0;labelBackgroundColor=none;strokeWidth=1;fontFamily=Verdana;fontSize=12;align=center;" parent="1" vertex="1">
          <mxGeometry x="830" y="2980" width="75" height="50" as="geometry" />
        </mxCell>
        <mxCell id="Opo9EoXG69oaY7-Oztma-48" value="KW_NEW" style="ellipse;whiteSpace=wrap;html=1;rounded=0;shadow=1;comic=0;labelBackgroundColor=none;strokeWidth=1;fontFamily=Verdana;fontSize=12;align=center;" parent="1" vertex="1">
          <mxGeometry x="770" y="3070" width="75" height="50" as="geometry" />
        </mxCell>
        <mxCell id="Opo9EoXG69oaY7-Oztma-49" style="edgeStyle=orthogonalEdgeStyle;rounded=0;orthogonalLoop=1;jettySize=auto;html=1;exitX=0.5;exitY=1;exitDx=0;exitDy=0;" parent="1" source="Opo9EoXG69oaY7-Oztma-50" target="Opo9EoXG69oaY7-Oztma-51" edge="1">
          <mxGeometry relative="1" as="geometry" />
        </mxCell>
        <mxCell id="Opo9EoXG69oaY7-Oztma-50" value=".bh exp.bs" style="ellipse;whiteSpace=wrap;html=1;rounded=0;shadow=1;comic=0;labelBackgroundColor=none;strokeWidth=1;fontFamily=Verdana;fontSize=12;align=center;" parent="1" vertex="1">
          <mxGeometry x="1060" y="2980" width="75" height="50" as="geometry" />
        </mxCell>
        <mxCell id="Opo9EoXG69oaY7-Oztma-51" value=".bh var.bs" style="ellipse;whiteSpace=wrap;html=1;rounded=0;shadow=1;comic=0;labelBackgroundColor=none;strokeWidth=1;fontFamily=Verdana;fontSize=12;align=center;" parent="1" vertex="1">
          <mxGeometry x="1060" y="3070" width="75" height="50" as="geometry" />
        </mxCell>
        <mxCell id="Opo9EoXG69oaY7-Oztma-52" style="edgeStyle=orthogonalEdgeStyle;rounded=0;orthogonalLoop=1;jettySize=auto;html=1;exitX=0.5;exitY=1;exitDx=0;exitDy=0;" parent="1" source="Opo9EoXG69oaY7-Oztma-53" target="Opo9EoXG69oaY7-Oztma-54" edge="1">
          <mxGeometry relative="1" as="geometry" />
        </mxCell>
        <mxCell id="Opo9EoXG69oaY7-Oztma-53" value=".bh exp.bs" style="ellipse;whiteSpace=wrap;html=1;rounded=0;shadow=1;comic=0;labelBackgroundColor=none;strokeWidth=1;fontFamily=Verdana;fontSize=12;align=center;" parent="1" vertex="1">
          <mxGeometry x="1260" y="2980" width="75" height="50" as="geometry" />
        </mxCell>
        <mxCell id="Opo9EoXG69oaY7-Oztma-54" value=".bh ref_var.bs" style="ellipse;whiteSpace=wrap;html=1;rounded=0;shadow=1;comic=0;labelBackgroundColor=none;strokeWidth=1;fontFamily=Verdana;fontSize=12;align=center;" parent="1" vertex="1">
          <mxGeometry x="1260" y="3070" width="75" height="50" as="geometry" />
        </mxCell>
        <mxCell id="Opo9EoXG69oaY7-Oztma-55" style="edgeStyle=orthogonalEdgeStyle;rounded=0;orthogonalLoop=1;jettySize=auto;html=1;exitX=0.5;exitY=1;exitDx=0;exitDy=0;" parent="1" source="Opo9EoXG69oaY7-Oztma-56" target="Opo9EoXG69oaY7-Oztma-57" edge="1">
          <mxGeometry relative="1" as="geometry" />
        </mxCell>
        <mxCell id="Opo9EoXG69oaY7-Oztma-56" value=".bh exp.bs" style="ellipse;whiteSpace=wrap;html=1;rounded=0;shadow=1;comic=0;labelBackgroundColor=none;strokeWidth=1;fontFamily=Verdana;fontSize=12;align=center;" parent="1" vertex="1">
          <mxGeometry x="1460" y="2980" width="75" height="50" as="geometry" />
        </mxCell>
        <mxCell id="Opo9EoXG69oaY7-Oztma-57" value=".bh deref_var.bs" style="ellipse;whiteSpace=wrap;html=1;rounded=0;shadow=1;comic=0;labelBackgroundColor=none;strokeWidth=1;fontFamily=Verdana;fontSize=12;align=center;" parent="1" vertex="1">
          <mxGeometry x="1460" y="3070" width="75" height="50" as="geometry" />
        </mxCell>
        <mxCell id="Opo9EoXG69oaY7-Oztma-61" style="edgeStyle=orthogonalEdgeStyle;rounded=0;orthogonalLoop=1;jettySize=auto;html=1;exitX=0.5;exitY=1;exitDx=0;exitDy=0;" parent="1" source="Opo9EoXG69oaY7-Oztma-63" target="Opo9EoXG69oaY7-Oztma-64" edge="1">
          <mxGeometry relative="1" as="geometry" />
        </mxCell>
        <mxCell id="Opo9EoXG69oaY7-Oztma-62" style="edgeStyle=orthogonalEdgeStyle;rounded=0;orthogonalLoop=1;jettySize=auto;html=1;exitX=0.5;exitY=1;exitDx=0;exitDy=0;" parent="1" source="Opo9EoXG69oaY7-Oztma-63" target="Opo9EoXG69oaY7-Oztma-65" edge="1">
          <mxGeometry relative="1" as="geometry" />
        </mxCell>
        <mxCell id="Opo9EoXG69oaY7-Oztma-67" style="edgeStyle=orthogonalEdgeStyle;rounded=0;orthogonalLoop=1;jettySize=auto;html=1;exitX=0.5;exitY=1;exitDx=0;exitDy=0;" parent="1" source="Opo9EoXG69oaY7-Oztma-63" target="Opo9EoXG69oaY7-Oztma-66" edge="1">
          <mxGeometry relative="1" as="geometry" />
        </mxCell>
        <mxCell id="Opo9EoXG69oaY7-Oztma-63" value=".bh exp.bs" style="ellipse;whiteSpace=wrap;html=1;rounded=0;shadow=1;comic=0;labelBackgroundColor=none;strokeWidth=1;fontFamily=Verdana;fontSize=12;align=center;" parent="1" vertex="1">
          <mxGeometry x="1727.5" y="2980" width="75" height="50" as="geometry" />
        </mxCell>
        <mxCell id="Opo9EoXG69oaY7-Oztma-64" value="(" style="ellipse;whiteSpace=wrap;html=1;rounded=0;shadow=1;comic=0;labelBackgroundColor=none;strokeWidth=1;fontFamily=Verdana;fontSize=12;align=center;" parent="1" vertex="1">
          <mxGeometry x="1602.5" y="3070" width="75" height="50" as="geometry" />
        </mxCell>
        <mxCell id="Opo9EoXG69oaY7-Oztma-65" value=".bh exp.bs" style="ellipse;whiteSpace=wrap;html=1;rounded=0;shadow=1;comic=0;labelBackgroundColor=none;strokeWidth=1;fontFamily=Verdana;fontSize=12;align=center;" parent="1" vertex="1">
          <mxGeometry x="1727.5" y="3070" width="75" height="50" as="geometry" />
        </mxCell>
        <mxCell id="Opo9EoXG69oaY7-Oztma-66" value=")" style="ellipse;whiteSpace=wrap;html=1;rounded=0;shadow=1;comic=0;labelBackgroundColor=none;strokeWidth=1;fontFamily=Verdana;fontSize=12;align=center;" parent="1" vertex="1">
          <mxGeometry x="1850" y="3070" width="75" height="50" as="geometry" />
        </mxCell>
        <mxCell id="Opo9EoXG69oaY7-Oztma-68" value="ID.l" style="ellipse;whiteSpace=wrap;html=1;rounded=0;shadow=1;comic=0;labelBackgroundColor=none;strokeWidth=1;fontFamily=Verdana;fontSize=12;align=center;" parent="1" vertex="1">
          <mxGeometry x="885" y="3070" width="75" height="50" as="geometry" />
        </mxCell>
        <mxCell id="Opo9EoXG69oaY7-Oztma-70" value="(AnÃ¡logo para o operador ou &quot;||&quot;)" style="text;html=1;align=center;verticalAlign=middle;resizable=0;points=[];autosize=1;strokeColor=none;fillColor=none;" parent="1" vertex="1">
          <mxGeometry x="388" y="2720" width="200" height="30" as="geometry" />
        </mxCell>
        <mxCell id="Opo9EoXG69oaY7-Oztma-71" value="(AnÃ¡logo para os outros operadores lÃ³gicos)" style="text;html=1;align=center;verticalAlign=middle;resizable=0;points=[];autosize=1;strokeColor=none;fillColor=none;" parent="1" vertex="1">
          <mxGeometry x="945" y="2720" width="260" height="30" as="geometry" />
        </mxCell>
        <mxCell id="Opo9EoXG69oaY7-Oztma-73" value="(AnÃ¡logo para os outros operadores aritmÃ©ticos)" style="text;html=1;align=center;verticalAlign=middle;resizable=0;points=[];autosize=1;strokeColor=none;fillColor=none;" parent="1" vertex="1">
          <mxGeometry x="1310" y="2720" width="280" height="30" as="geometry" />
        </mxCell>
      </root>
    </mxGraphModel>
  </diagram>
</mxfile>
